HIERARCHY
ROOT Hips
{
  OFFSET 179.979 97.3047 303.174
  CHANNELS 6 Xposition Yposition Zposition Zrotation Xrotation Yrotation
  JOINT Spine
  {
    OFFSET 0.000859786 9.92346 -1.22733
    CHANNELS 3 Zrotation Xrotation Yrotation
    JOINT Spine1
    {
      OFFSET 0 11.732 0
      CHANNELS 3 Zrotation Xrotation Yrotation
      JOINT Spine2
      {
        OFFSET 0 13.4588 0
        CHANNELS 3 Zrotation Xrotation Yrotation
        JOINT Neck
        {
          OFFSET 2.54812e-05 15.0278 0.877907
          CHANNELS 3 Zrotation Xrotation Yrotation
          JOINT Head
          {
            OFFSET 0 10.3218 3.14243
            CHANNELS 3 Zrotation Xrotation Yrotation
            End Site
            {
              OFFSET 0 0 0
            }
          }
        }
        JOINT LeftShoulder
        {
          OFFSET 6.10582 9.10629 0.757062
          CHANNELS 3 Zrotation Xrotation Yrotation
          JOINT LeftArm
          {
            OFFSET 0 12.9223 0
            CHANNELS 3 Zrotation Xrotation Yrotation
            JOINT LeftForeArm
            {
              OFFSET 0 27.4047 0
              CHANNELS 3 Zrotation Xrotation Yrotation
              JOINT LeftHand
              {
                OFFSET -1.28204e-05 27.6145 0
                CHANNELS 3 Zrotation Xrotation Yrotation
                End Site
                {
                  OFFSET 0 0 0
                }
              }
            }
          }
        }
        JOINT RightShoulder
        {
          OFFSET -6.1057 9.10638 0.757076
          CHANNELS 3 Zrotation Xrotation Yrotation
          JOINT RightArm
          {
            OFFSET 0 12.9223 0
            CHANNELS 3 Zrotation Xrotation Yrotation
            JOINT RightForeArm
            {
              OFFSET 0 27.4047 0
              CHANNELS 3 Zrotation Xrotation Yrotation
              JOINT RightHand
              {
                OFFSET 1.28428e-05 27.6145 1.44975e-05
                CHANNELS 3 Zrotation Xrotation Yrotation
                End Site
                {
                  OFFSET 0 0 0
                }
              }
            }
          }
        }
      }
    }
  }
  JOINT LeftUpLeg
  {
    OFFSET 9.12387 -6.65719 -0.0554031
    CHANNELS 3 Zrotation Xrotation Yrotation
    JOINT LeftLeg
    {
      OFFSET 0 40.5994 0
      CHANNELS 3 Zrotation Xrotation Yrotation
      JOINT LeftFoot
      {
        OFFSET 0 42.099 0
        CHANNELS 3 Zrotation Xrotation Yrotation
        JOINT LeftToeBase
        {
          OFFSET 0 15.7216 0
          CHANNELS 3 Zrotation Xrotation Yrotation
          End Site
          {
            OFFSET 0 0 0
          }
        }
      }
    }
  }
  JOINT RightUpLeg
  {
    OFFSET -9.12503 -6.6556 -0.0553527
    CHANNELS 3 Zrotation Xrotation Yrotation
    JOINT RightLeg
    {
      OFFSET 0 40.5994 0
      CHANNELS 3 Zrotation Xrotation Yrotation
      JOINT RightFoot
      {
        OFFSET 0 42.099 0
        CHANNELS 3 Zrotation Xrotation Yrotation
        JOINT RightToeBase
        {
          OFFSET 0 15.7216 0
          CHANNELS 3 Zrotation Xrotation Yrotation
          End Site
          {
            OFFSET 0 0 0
          }
        }
      }
    }
  }
}
MOTION
Frames:	6
Frame Time:	0.0333333
179.979 97.3047 303.174 0.419562 0.622047 -8.9686 0.041377 -6.3646 0.199385 0.0776254 1.22032 0.388453 0.0338704 7.81464 0.39227 2.36688 14.1458 -1.44805 -4.7225 -24.6139 -0.541178 -89.3085 -15.6167 90.1513 5.17864 17.5279 -8.63274 39.1345 -23.0506 -1.00571 -9.1646 -14.3087 12.3068 93.7461 -14.0898 -90.387 -9.4201 11.1119 9.62514 -34.0408 -16.212 0.935007 7.54547 -16.254 -11.9591 -173.73 8.05977 -15.912 1.92263 -23.8721 -3.99978 10.6855 77.9391 -15.5723 -0.965278 26.367 -3.60229 171.142 9.02693 9.64221 -3.08147 -18.6318 2.45952 -1.1465 76.6136 8.90315 0.963541 26.3682 3.55537 
179.899 97.289 303.241 0.404583 0.536914 -8.80779 0.0342709 -6.36671 0.206884 0.0633328 1.21607 0.405242 0.0176647 7.8104 0.409181 2.25975 14.1137 -1.47231 -4.48505 -24.5563 -0.610063 -89.306 -15.7809 90.1379 5.20399 17.5496 -8.7752 39.2135 -23.064 -1.00581 -9.17102 -14.332 12.5008 93.7727 -14.1597 -90.3782 -9.40104 11.0748 9.55639 -34.1053 -16.2543 0.941783 7.55829 -16.2488 -11.9877 -173.676 7.97062 -15.838 1.93778 -23.9267 -3.93201 10.5002 77.9982 -15.4205 -0.965278 26.367 -3.60229 171.167 8.91516 9.56203 -3.02784 -18.7989 2.58121 -1.56254 76.7721 9.32873 0.963541 26.3682 3.55537 
179.748 97.2541 303.372 0.396927 0.401877 -8.51643 0.013008 -6.38238 0.226511 0.0208966 1.18462 0.449881 -0.029961 7.77891 0.454187 2.06647 14.0885 -1.51617 -4.02854 -24.474 -0.735433 -89.3022 -16.0367 90.1154 5.21636 17.5696 -8.95456 39.2858 -23.0732 -1.00588 -9.12858 -14.3422 12.7938 93.834 -14.1991 -90.3735 -9.25202 10.9953 9.34295 -34.1668 -16.3072 0.949476 7.65412 -16.2871 -11.8794 -173.612 7.83238 -15.6318 1.95366 -24.0333 -3.85627 10.2909 78.1073 -15.2847 -0.965278 26.367 -3.60229 171.186 8.76577 9.44396 -2.95482 -19.1686 2.77826 -2.30172 77.0971 10.0993 0.963541 26.3682 3.55537 
179.592 97.2291 303.489 0.388249 0.333866 -8.26045 -0.00532905 -6.41081 0.254301 -0.0157265 1.12771 0.510091 -0.0735963 7.72193 0.514845 1.95246 14.053 -1.64138 -3.60581 -24.3782 -0.914517 -89.3062 -16.1189 90.108 5.06001 17.6125 -8.98721 39.2479 -23.0801 -1.00593 -8.98729 -14.4145 12.8104 93.8909 -14.2234 -90.3708 -9.11116 11.034 9.24749 -34.2023 -16.3344 0.953485 7.76322 -16.3329 -11.7801 -173.54 7.73272 -15.3014 1.90559 -24.0679 -3.9003 10.3157 78.1543 -15.3896 -0.965278 26.367 -3.60229 171.266 8.66694 9.52103 -3.00936 -19.4379 2.83258 -2.68906 77.3608 10.515 0.963541 26.3682 3.55537 
179.434 97.2236 303.59 0.370657 0.306173 -8.00572 -0.0192068 -6.44008 0.27951 -0.0434562 1.06907 0.564014 -0.107572 7.66323 0.569195 1.90522 13.9203 -1.88568 -3.23656 -24.1789 -1.19064 -89.3159 -16.1669 90.1059 4.85843 17.7303 -8.98013 39.2059 -23.1078 -1.00476 -8.8538 -14.4525 12.6376 93.9249 -14.2568 -90.3666 -9.00698 11.1886 9.20584 -34.2157 -16.3585 0.953828 7.83659 -16.216 -11.7096 -173.451 7.61624 -15.0555 1.85552 -23.9659 -3.90282 10.1385 78.1299 -15.2635 -0.965278 26.367 -3.60229 171.382 8.54227 9.71154 -3.09854 -19.5435 2.82907 -2.89696 77.5367 10.7219 0.963541 26.3682 3.55537 
179.28 97.2351 303.671 0.331278 0.309662 -7.72825 -0.0261729 -6.46164 0.296874 -0.0573571 1.02591 0.600541 -0.125711 7.62003 0.60598 1.87986 13.6172 -2.19329 -2.91834 -23.8507 -1.52351 -89.3356 -16.2026 90.104 4.62267 17.8903 -8.96166 39.2354 -23.1415 -1.00268 -8.91571 -14.3716 12.4021 93.966 -14.3294 -90.3545 -8.95849 11.3787 9.21402 -34.1874 -16.3266 0.952218 7.73637 -16.2177 -11.6718 -173.345 7.51059 -14.839 1.82249 -23.7825 -3.87497 9.83119 78.053 -14.9948 -0.965278 26.367 -3.60229 171.525 8.37917 9.87335 -3.14065 -19.5003 2.88089 -3.20755 77.6252 11.0007 0.963541 26.3682 3.55537 
